<?xml version="1.0" encoding="utf-8"?>
<!-- Generator: Adobe Illustrator 16.0.4, SVG Export Plug-In . SVG Version: 6.00 Build 0)  -->
<!DOCTYPE svg PUBLIC "-//W3C//DTD SVG 1.1//EN" "http://www.w3.org/Graphics/SVG/1.1/DTD/svg11.dtd">
<svg version="1.1" id="レイヤー_1" xmlns="http://www.w3.org/2000/svg" xmlns:xlink="http://www.w3.org/1999/xlink" x="0px"
	 y="0px" width="704px" height="239px" viewBox="0 0 704 239" enable-background="new 0 0 704 239" xml:space="preserve">
<g>
	<g>
		<path fill="#595757" d="M5.866,232.555v-22.789h3.456v22.789H5.866z"/>
		<path fill="#595757" d="M23.468,212.87v19.685h-3.454V212.87h-6.277v-3.104h16.002v3.104H23.468z"/>
		<path fill="#595757" d="M49.661,232.748c-2.367,0-4.414-0.867-5.982-2.431c-2.239-2.244-2.21-4.765-2.21-9.155
			c0-4.383-0.029-6.916,2.21-9.155c1.568-1.567,3.615-2.43,5.982-2.43c4.195,0,7.33,2.464,8.13,7.009h-3.517
			c-0.547-2.306-2.083-3.905-4.613-3.905c-1.34,0-2.556,0.512-3.359,1.376c-1.119,1.216-1.378,2.528-1.378,7.105
			c0,4.576,0.259,5.888,1.378,7.104c0.803,0.867,2.019,1.376,3.359,1.376c2.53,0,4.099-1.599,4.643-3.905h3.487
			C57.024,230.286,53.792,232.748,49.661,232.748z"/>
		<path fill="#595757" d="M76.247,230.317c-1.569,1.563-3.584,2.431-6.018,2.431c-2.433,0-4.413-0.867-5.981-2.431
			c-2.239-2.244-2.209-4.765-2.209-9.155c0-4.383-0.03-6.916,2.209-9.155c1.569-1.567,3.549-2.43,5.981-2.43
			c2.433,0,4.449,0.863,6.018,2.43c2.244,2.239,2.177,4.772,2.177,9.155C78.423,225.552,78.49,228.074,76.247,230.317z
			 M73.62,214.089c-0.796-0.863-2.044-1.408-3.391-1.408c-1.338,0-2.592,0.545-3.391,1.408c-1.118,1.219-1.345,2.497-1.345,7.074
			c0,4.576,0.227,5.855,1.345,7.073c0.799,0.863,2.053,1.408,3.391,1.408c1.347,0,2.595-0.545,3.391-1.408
			c1.122-1.218,1.346-2.497,1.346-7.073C74.966,216.586,74.742,215.308,73.62,214.089z"/>
		<path fill="#595757" d="M98,232.555l-10.528-16.031v16.031h-3.458v-22.789h3.168l10.53,16.006v-16.006h3.455v22.789H98z"/>
		<path fill="#595757" d="M113.635,232.748c-3.423,0-5.887-0.803-8.063-3.006l2.305-2.275c1.664,1.667,3.49,2.177,5.822,2.177
			c2.979,0,4.707-1.278,4.707-3.484c0-0.994-0.289-1.826-0.896-2.371c-0.576-0.545-1.153-0.77-2.495-0.96l-2.688-0.392
			c-1.858-0.249-3.329-0.892-4.323-1.814c-1.12-1.061-1.66-2.501-1.66-4.354c0-3.969,2.878-6.691,7.614-6.691
			c3.012,0,5.123,0.765,7.071,2.59l-2.206,2.175c-1.408-1.341-3.041-1.757-4.963-1.757c-2.685,0-4.156,1.537-4.156,3.551
			c0,0.836,0.255,1.57,0.862,2.115c0.575,0.512,1.501,0.898,2.561,1.054l2.59,0.382c2.114,0.323,3.298,0.832,4.259,1.699
			c1.249,1.089,1.855,2.722,1.855,4.669C121.829,230.251,118.405,232.748,113.635,232.748z"/>
		<path fill="#595757" d="M134.751,232.748c-4.644,0-8.163-3.165-8.163-7.87v-15.112h3.456v14.948c0,3.044,1.857,4.93,4.708,4.93
			c2.844,0,4.737-1.886,4.737-4.93v-14.948h3.455v15.112C142.942,229.583,139.391,232.748,134.751,232.748z"/>
		<path fill="#595757" d="M149.014,232.555v-22.789h3.455v19.684h10.978v3.104H149.014z"/>
		<path fill="#595757" d="M175.564,212.87v19.685h-3.455V212.87h-6.274v-3.104h16.003v3.104H175.564z"/>
		<path fill="#595757" d="M186.244,232.555v-22.789h3.457v22.789H186.244z"/>
		<path fill="#595757" d="M210.114,232.555l-10.528-16.031v16.031h-3.456v-22.789h3.171l10.528,16.006v-16.006h3.456v22.789H210.114
			z"/>
		<path fill="#595757" d="M233.339,230.157c-1.729,1.826-3.873,2.591-6.273,2.591c-2.368,0-4.417-0.867-5.986-2.431
			c-2.239-2.244-2.209-4.765-2.209-9.155c0-4.383-0.03-6.916,2.209-9.155c1.568-1.567,3.552-2.43,5.986-2.43
			c4.833,0,7.65,3.164,8.289,7.073h-3.488c-0.58-2.497-2.242-3.969-4.801-3.969c-1.343,0-2.561,0.545-3.362,1.408
			c-1.12,1.219-1.378,2.497-1.378,7.074c0,4.576,0.259,5.888,1.378,7.104c0.802,0.867,2.02,1.376,3.362,1.376
			c1.501,0,2.815-0.576,3.71-1.599c0.834-0.965,1.152-2.11,1.152-3.585v-1.278h-4.862v-2.946h8.318v3.484
			C235.384,226.668,234.843,228.554,233.339,230.157z"/>
		<path fill="#595757" d="M263.827,232.555l-1.859-2.237c-0.992,0.863-2.849,2.431-6.303,2.431c-4.736,0-7.364-2.655-7.364-6.785
			c0-3.169,2.274-4.959,4.513-6.433c-1.024-1.185-2.367-2.782-2.367-4.896c0-2.911,2.178-5.057,5.57-5.057
			c3.233,0,5.408,2.175,5.408,5.085c0,1.797-0.992,3.044-2.435,4.034c0,0-1.116,0.774-1.662,1.156l4.8,5.724
			c0.836-1.181,1.188-2.498,1.218-4.572h3.136c-0.096,2.911-0.736,5.215-2.272,7.007l3.807,4.543H263.827z M254.606,221.581
			c-1.662,1.147-3.071,2.208-3.071,4.318c0,2.272,1.761,3.872,4.129,3.872c1.537,0,2.852-0.412,4.351-1.759L254.606,221.581z
			 M256.018,212.428c-1.411,0-2.243,0.956-2.243,2.235c0,0.934,0.608,1.797,1.761,3.14c0.353-0.222,1.09-0.738,1.09-0.738
			c0.896-0.604,1.664-1.305,1.664-2.368C258.29,213.417,257.363,212.428,256.018,212.428z"/>
		<path fill="#595757" d="M287.141,232.748c-3.425,0-5.888-0.803-8.068-3.006l2.309-2.275c1.663,1.667,3.487,2.177,5.824,2.177
			c2.978,0,4.703-1.278,4.703-3.484c0-0.994-0.285-1.826-0.894-2.371c-0.576-0.545-1.152-0.77-2.5-0.96l-2.684-0.392
			c-1.859-0.249-3.333-0.892-4.325-1.814c-1.116-1.061-1.659-2.501-1.659-4.354c0-3.969,2.873-6.691,7.612-6.691
			c3.011,0,5.125,0.765,7.074,2.59l-2.206,2.175c-1.41-1.341-3.042-1.757-4.963-1.757c-2.686,0-4.158,1.537-4.158,3.551
			c0,0.836,0.253,1.57,0.863,2.115c0.578,0.512,1.503,0.898,2.562,1.054l2.593,0.382c2.112,0.323,3.295,0.832,4.254,1.699
			c1.248,1.089,1.856,2.722,1.856,4.669C295.333,230.251,291.908,232.748,287.141,232.748z"/>
		<path fill="#595757" d="M313.821,230.317c-1.566,1.563-3.585,2.431-6.018,2.431s-4.412-0.867-5.982-2.431
			c-2.241-2.244-2.21-4.765-2.21-9.155c0-4.383-0.031-6.916,2.21-9.155c1.57-1.567,3.549-2.43,5.982-2.43s4.452,0.863,6.018,2.43
			c2.241,2.239,2.179,4.772,2.179,9.155C316,225.552,316.062,228.074,313.821,230.317z M311.197,214.089
			c-0.798-0.863-2.048-1.408-3.394-1.408c-1.338,0-2.59,0.545-3.389,1.408c-1.121,1.219-1.348,2.497-1.348,7.074
			c0,4.576,0.227,5.855,1.348,7.073c0.798,0.863,2.05,1.408,3.389,1.408c1.345,0,2.595-0.545,3.394-1.408
			c1.125-1.218,1.343-2.497,1.343-7.073C312.54,216.586,312.322,215.308,311.197,214.089z"/>
		<path fill="#595757" d="M321.586,232.555v-22.789h3.46v19.684h10.976v3.104H321.586z"/>
		<path fill="#595757" d="M348.239,232.748c-4.641,0-8.161-3.165-8.161-7.87v-15.112h3.456v14.948c0,3.044,1.859,4.93,4.706,4.93
			c2.846,0,4.736-1.886,4.736-4.93v-14.948h3.458v15.112C356.434,229.583,352.878,232.748,348.239,232.748z"/>
		<path fill="#595757" d="M370.214,212.87v19.685h-3.454V212.87h-6.277v-3.104h16.002v3.104H370.214z"/>
		<path fill="#595757" d="M380.892,232.555v-22.789h3.456v22.789H380.892z"/>
		<path fill="#595757" d="M404.161,230.317c-1.57,1.563-3.587,2.431-6.018,2.431c-2.437,0-4.421-0.867-5.988-2.431
			c-2.244-2.244-2.208-4.765-2.208-9.155c0-4.383-0.035-6.916,2.208-9.155c1.567-1.567,3.551-2.43,5.988-2.43
			c2.431,0,4.447,0.863,6.018,2.43c2.237,2.239,2.172,4.772,2.172,9.155C406.333,225.552,406.398,228.074,404.161,230.317z
			 M401.533,214.089c-0.798-0.863-2.053-1.408-3.389-1.408c-1.348,0-2.597,0.545-3.394,1.408c-1.121,1.219-1.345,2.497-1.345,7.074
			c0,4.576,0.225,5.855,1.345,7.073c0.796,0.863,2.046,1.408,3.394,1.408c1.336,0,2.591-0.545,3.389-1.408
			c1.118-1.218,1.343-2.497,1.343-7.073C402.875,216.586,402.651,215.308,401.533,214.089z"/>
		<path fill="#595757" d="M425.909,232.555l-10.531-16.031v16.031h-3.456v-22.789h3.167l10.531,16.006v-16.006h3.456v22.789H425.909
			z"/>
		<path fill="#595757" d="M447.112,212.87v6.947h9.475v3.104h-9.475v9.633h-3.458v-22.789h14.561v3.104H447.112z"/>
		<path fill="#595757" d="M476.225,230.317c-1.568,1.563-3.584,2.431-6.015,2.431c-2.433,0-4.417-0.867-5.986-2.431
			c-2.241-2.244-2.21-4.765-2.21-9.155c0-4.383-0.031-6.916,2.21-9.155c1.57-1.567,3.554-2.43,5.986-2.43
			c2.431,0,4.447,0.863,6.015,2.43c2.239,2.239,2.177,4.772,2.177,9.155C478.401,225.552,478.464,228.074,476.225,230.317z
			 M473.598,214.089c-0.8-0.863-2.048-1.408-3.389-1.408c-1.348,0-2.597,0.545-3.394,1.408c-1.123,1.219-1.345,2.497-1.345,7.074
			c0,4.576,0.222,5.855,1.345,7.073c0.796,0.863,2.046,1.408,3.394,1.408c1.341,0,2.588-0.545,3.389-1.408
			c1.121-1.218,1.348-2.497,1.348-7.073C474.946,216.586,474.719,215.308,473.598,214.089z"/>
		<path fill="#595757" d="M496.569,232.555l-4.806-9.598h-4.32v9.598h-3.456v-22.789h8.835c4.318,0,7.076,2.789,7.076,6.662
			c0,3.26-1.986,5.341-4.548,6.048l5.248,10.078H496.569z M492.566,212.87h-5.123v7.141h5.123c2.307,0,3.874-1.314,3.874-3.551
			C496.44,214.216,494.873,212.87,492.566,212.87z"/>
		<path fill="#595757" d="M521.295,212.87v19.685h-3.46V212.87h-6.273v-3.104h16.002v3.104H521.295z"/>
		<path fill="#595757" d="M544.677,232.555v-9.954h-9.25v9.954h-3.454v-22.789h3.454v9.735h9.25v-9.735h3.456v22.789H544.677z"/>
		<path fill="#595757" d="M554.555,232.555v-22.789h14.561v3.104h-11.103v6.66h9.475v3.071h-9.475v6.849h11.103v3.104H554.555z"/>
		<path fill="#595757" d="M591.121,223.593h-5.181v8.962h-3.456v-22.789h8.637c4.447,0,7.299,2.951,7.299,6.916
			C598.42,220.653,595.568,223.593,591.121,223.593z M590.93,212.87h-4.989v7.587h4.989c2.402,0,4.034-1.374,4.034-3.776
			C594.964,214.28,593.332,212.87,590.93,212.87z"/>
		<path fill="#595757" d="M603.08,232.555v-22.789h14.565v3.104h-11.109v6.66h9.473v3.071h-9.473v6.849h11.109v3.104H603.08z"/>
		<path fill="#595757" d="M636.231,230.317c-1.57,1.563-3.587,2.431-6.021,2.431c-2.429,0-4.417-0.867-5.984-2.431
			c-2.239-2.244-2.208-4.765-2.208-9.155c0-4.383-0.031-6.916,2.208-9.155c1.567-1.567,3.556-2.43,5.984-2.43
			c2.435,0,4.451,0.863,6.021,2.43c2.239,2.239,2.175,4.772,2.175,9.155C638.406,225.552,638.471,228.074,636.231,230.317z
			 M633.603,214.089c-0.796-0.863-2.048-1.408-3.393-1.408c-1.339,0-2.591,0.545-3.39,1.408c-1.12,1.219-1.345,2.497-1.345,7.074
			c0,4.576,0.225,5.855,1.345,7.073c0.799,0.863,2.051,1.408,3.39,1.408c1.345,0,2.597-0.545,3.393-1.408
			c1.126-1.218,1.348-2.497,1.348-7.073C634.95,216.586,634.729,215.308,633.603,214.089z"/>
		<path fill="#595757" d="M652.638,223.593h-5.186v8.962h-3.456v-22.789h8.642c4.447,0,7.294,2.951,7.294,6.916
			C659.932,220.653,657.085,223.593,652.638,223.593z M652.446,212.87h-4.994v7.587h4.994c2.397,0,4.029-1.374,4.029-3.776
			C656.476,214.28,654.844,212.87,652.446,212.87z"/>
		<path fill="#595757" d="M664.593,232.555v-22.789h3.455v19.684h10.981v3.104H664.593z"/>
		<path fill="#595757" d="M683.437,232.555v-22.789h14.561v3.104h-11.101v6.66h9.473v3.071h-9.473v6.849h11.101v3.104H683.437z"/>
	</g>
	<g>
		<polygon fill="#E50012" points="329.244,62.11 306.029,107.536 306.033,107.542 306.022,107.542 306.022,185.803 352.455,185.803 
			352.455,107.542 352.462,107.536 		"/>
		<path fill="none" d="M627.853,145.961c11.092,0,17.141-4.034,21.174-10.084c3.527-5.039,4.79-9.829,4.79-40.331
			c0-30.251-1.263-35.291-4.79-40.333c-4.033-6.049-10.082-10.08-21.174-10.08h-17.087v100.829H627.853z"/>
		<path fill="#E50012" d="M679.275,23.455C666.923,11.1,649.531,5.808,630.877,5.808h-20.111v39.324h17.087
			c11.092,0,17.141,4.031,21.174,10.08c3.527,5.043,4.79,10.082,4.79,40.333c0,30.502-1.263,35.292-4.79,40.331
			c-4.033,6.051-10.082,10.084-21.174,10.084h-17.087v39.322h20.111c18.654,0,36.046-5.294,48.398-17.643
			c20.923-20.925,18.655-43.865,18.655-72.095C697.931,67.313,700.198,44.375,679.275,23.455z"/>
		<polygon fill="#E50012" points="52.301,5.808 5.866,5.808 54.388,185.803 54.431,185.803 77.626,99.757 		"/>
		<polygon fill="#E50012" points="102.951,5.808 77.626,99.757 100.822,185.803 100.865,185.803 126.171,91.927 102.956,5.808 		"/>
		<polygon fill="#BE0008" points="54.431,185.803 100.822,185.803 77.626,99.757 		"/>
		<polygon fill="#E50012" points="199.96,5.808 174.674,99.606 197.891,185.734 246.394,5.808 		"/>
		<polygon fill="#808080" points="151.439,185.803 151.477,185.803 151.457,185.734 		"/>
		<polygon fill="#808080" points="197.91,185.803 197.891,185.734 197.872,185.803 		"/>
		<polygon fill="#E50012" points="149.389,5.808 149.385,5.808 126.171,91.927 151.457,185.734 174.674,99.606 		"/>
		<polygon fill="#BE0008" points="102.956,5.808 126.171,91.927 149.385,5.808 		"/>
		<polygon fill="#BE0008" points="151.457,185.734 151.477,185.803 197.872,185.803 197.891,185.734 174.674,99.606 		"/>
		<polygon fill="#808080" points="352.466,107.542 352.462,107.536 352.455,107.542 		"/>
		<polygon fill="#E50012" points="300.47,5.808 254.034,5.808 306.029,107.536 329.244,62.11 		"/>
		<polygon fill="#808080" points="306.029,107.536 306.022,107.542 306.033,107.542 		"/>
		<polygon fill="#E50012" points="358.021,5.808 329.244,62.11 352.462,107.536 404.455,5.808 		"/>
		<polygon fill="#BE0008" points="306.029,107.536 306.033,107.542 352.455,107.542 352.462,107.536 329.244,62.11 		"/>
		<rect x="413.002" y="45.381" fill="#E50012" width="46.433" height="36.3"/>
		<rect x="413.002" y="118.516" fill="#E50012" width="46.433" height="67.287"/>
		<rect x="564.33" y="45.132" fill="#E50012" width="46.436" height="100.829"/>
		<polygon fill="#BE0008" points="610.766,5.808 538.131,5.808 564.33,45.132 610.766,45.132 		"/>
		<rect x="564.33" y="145.961" fill="#BE0008" width="46.436" height="39.322"/>
		<path fill="#E50012" d="M545.34,63.533c0-29.495-21.424-57.725-61.252-57.725h-24.652v39.573h22.635
			c12.102,0,19.16,8.826,19.16,18.152c0,9.329-7.059,18.148-19.16,18.148h-22.635v36.802h12.553l31.762,66.802h51.169
			l-38.816-74.866C530.219,103.362,545.34,87.982,545.34,63.533z"/>
		<rect x="413.002" y="81.681" fill="#BE0008" width="46.433" height="36.835"/>
		<rect x="413.002" y="5.808" fill="#BE0008" width="46.433" height="39.573"/>
	</g>
</g>
</svg>
